# xmcd
#
# Track frame offsets:
# 150
# 8430
# 22344
# 37002
# 60500
# 80426
# 103853
# 125915
# 145763
# 168860
# 204958
# 233572
#
# Disc length: 3491 seconds
#
# Revision: 0
# Processed by: cddbd v1.5.2PL0 Copyright (c) Steve Scherf et al.
# Submitted via: Audion 3.0.2 (http://www.panic.com/audion/)
#
DISCID=980da10c
DTITLE=mmm - mmm
DYEAR=1900
DGENRE=
TTITLE0=äl$
TTITLE1=oü¨p
TTITLE2=oij
TTITLE3=öhi
TTITLE4=gilu
TTITLE5=ug
TTITLE6=iu
TTITLE7=giu
TTITLE8=iu
TTITLE9=piou
TTITLE10=poui
TTITLE11=uio
EXTD=
EXTT0=
EXTT1=
EXTT2=
EXTT3=
EXTT4=
EXTT5=
EXTT6=
EXTT7=
EXTT8=
EXTT9=
EXTT10=
EXTT11=
PLAYORDER=
